<svg width="54" height="55" viewBox="0 0 54 55" fill="none" xmlns="http://www.w3.org/2000/svg">
<path d="M12.3849 42.5032L31.907 32.8768L41.5334 13.3547L22.0113 22.9811L12.3849 42.5032ZM26.9928 30.588C26.2299 30.588 25.5904 30.3299 25.0743 29.8138C24.5582 29.2977 24.3001 28.6582 24.3001 27.8953C24.3001 27.1323 24.5582 26.4928 25.0743 25.9767C25.5904 25.4606 26.2299 25.2026 26.9928 25.2026C27.7558 25.2026 28.3953 25.4606 28.9114 25.9767C29.4275 26.4928 29.6855 27.1323 29.6855 27.8953C29.6855 28.6582 29.4275 29.2977 28.9114 29.8138C28.3953 30.3299 27.7558 30.588 26.9928 30.588ZM26.9928 54.8223C23.3128 54.8223 19.8347 54.1154 16.5586 52.7018C13.2825 51.2881 10.4215 49.3583 7.97563 46.9125C5.52976 44.4666 3.6 41.6056 2.18633 38.3295C0.77266 35.0534 0.0658264 31.5753 0.0658264 27.8953C0.0658264 24.1704 0.77266 20.6699 2.18633 17.3937C3.6 14.1176 5.52976 11.2678 7.97563 8.84441C10.4215 6.42098 13.2825 4.50243 16.5586 3.08876C19.8347 1.6751 23.3128 0.968262 26.9928 0.968262C30.7177 0.968262 34.2182 1.6751 37.4944 3.08876C40.7705 4.50243 43.6203 6.42098 46.0437 8.84441C48.4671 11.2678 50.3857 14.1176 51.7993 17.3937C53.213 20.6699 53.9198 24.1704 53.9198 27.8953C53.9198 31.5753 53.213 35.0534 51.7993 38.3295C50.3857 41.6056 48.4671 44.4666 46.0437 46.9125C43.6203 49.3583 40.7705 51.2881 37.4944 52.7018C34.2182 54.1154 30.7177 54.8223 26.9928 54.8223ZM26.9928 50.7832C33.3656 50.7832 38.7734 48.5505 43.2163 44.0851C47.6593 39.6197 49.8808 34.2231 49.8808 27.8953C49.8808 21.5225 47.6593 16.1147 43.2163 11.6717C38.7734 7.22879 33.3656 5.00731 26.9928 5.00731C20.665 5.00731 15.2684 7.22879 10.803 11.6717C6.33757 16.1147 4.10488 21.5225 4.10488 27.8953C4.10488 34.2231 6.33757 39.6197 10.803 44.0851C15.2684 48.5505 20.665 50.7832 26.9928 50.7832Z" fill="#F0E74D"/>
</svg>
