<svg width="545" height="203" viewBox="0 0 545 203" fill="none" xmlns="http://www.w3.org/2000/svg">
<path d="M269.778 127.536C268.845 127.916 267.614 128.269 266.086 128.596C264.602 128.919 263.18 129.125 261.818 129.213C257.551 129.489 254.373 128.988 252.284 127.71C250.196 126.432 248.706 124.18 247.813 120.956C246.967 117.728 246.329 112.801 245.901 106.173C245.475 99.5904 245.497 94.6429 245.967 91.3304C246.434 87.9724 247.62 85.5253 249.527 83.9889C251.479 82.4496 254.543 81.545 258.719 81.275C260.217 81.1782 261.7 81.1963 263.167 81.3294C264.677 81.4142 265.851 81.589 266.689 81.854L267.182 89.4805C264.528 89.3329 262.52 89.3031 261.158 89.3912C258.843 89.5408 257.252 89.9628 256.385 90.657C255.561 91.3029 255.077 92.6333 254.934 94.6484C254.836 96.6605 254.957 100.3 255.298 105.565C255.638 110.831 255.986 114.456 256.342 116.439C256.744 118.418 257.396 119.698 258.3 120.278C259.246 120.809 260.877 121 263.192 120.851C265.28 120.716 267.313 120.425 269.29 119.978L269.778 127.536ZM295.795 126.47L293.335 116.988L282.849 117.666L281.631 127.386L272.302 127.989L278.943 80.5149L292.63 79.6302L305.328 125.854L295.795 126.47ZM286.461 88.9182L286.053 88.9446L283.687 109.474L291.382 108.977L286.461 88.9182ZM329.5 124.292L316.945 99.3244L316.673 99.342L318.332 125.013L309.412 125.59L306.384 78.7412L315.44 78.1559L327.118 101.197L327.458 101.175L325.927 77.4781L334.915 76.8971L337.943 123.746L329.5 124.292ZM345.055 123.286L342.027 76.4375L351.424 75.8301L353.902 114.167L365.75 113.401L366.3 121.913L345.055 123.286ZM370.924 121.614L367.896 74.7654L377.225 74.1624L380.253 121.011L370.924 121.614ZM384.386 73.6996L397.052 72.8809C401.864 72.5699 405.335 73.0293 407.466 74.2592C409.639 75.4407 411.072 77.5134 411.765 80.4772C412.455 83.3957 413.026 88.3504 413.478 95.3414C413.93 102.332 414.003 107.342 413.698 110.371C413.389 113.354 412.235 115.594 410.234 117.09C408.277 118.539 404.892 119.419 400.08 119.73L387.414 120.548L384.386 73.6996ZM399.411 111.499C401.408 111.37 402.733 111.056 403.385 110.559C404.079 110.012 404.455 108.78 404.513 106.861C404.617 104.94 404.496 101.301 404.149 95.9444C403.806 90.6331 403.459 87.0314 403.109 85.1394C402.756 83.2021 402.224 82.0284 401.514 81.6185C400.801 81.1631 399.445 81 397.448 81.1291L394.248 81.336L396.211 111.706L399.411 111.499ZM441.692 117.04L439.233 107.558L428.746 108.235L427.528 117.956L418.199 118.559L424.84 71.0848L438.527 70.2001L451.225 116.424L441.692 117.04ZM432.358 79.4881L431.95 79.5145L429.584 100.044L437.279 99.5469L432.358 79.4881ZM459.276 115.904L458.229 99.6971L445.149 69.7721L454.75 69.1516L462.186 88.9794L462.799 88.9398L467.416 68.3329L476.677 67.7344L467.558 99.0941L468.605 115.301L459.276 115.904ZM483.306 114.35L480.278 67.5016L489.607 66.8986L492.635 113.747L483.306 114.35ZM498.366 113.377L497.865 105.614L510.92 73.7949L496.347 74.7368L495.815 66.4974L520.874 64.8777L521.371 72.5723L508.252 104.464L523.505 103.478L524.038 111.718L498.366 113.377ZM531.28 96.343C530.615 93.1038 529.765 88.0532 528.728 81.1911C527.689 74.2837 527.107 69.8539 526.981 67.9019L526.76 64.4972L537.451 63.8062L537.671 67.2109C537.792 69.0721 537.778 73.4492 537.631 80.3422C537.484 87.2352 537.296 92.4441 537.068 95.9689L531.28 96.343ZM530.333 111.311L529.752 102.322L539.354 101.702L539.935 110.69L530.333 111.311Z" fill="#F0E74D"/>
<path d="M268.907 69.4204L267.499 47.6302L249.522 48.7922L250.93 70.5823L246.981 70.8376L243.953 23.9888L247.902 23.7335L249.28 45.047L267.257 43.8851L265.879 22.5716L269.829 22.3163L272.857 69.1651L268.907 69.4204ZM283.021 68.5081L279.993 21.6593L301.783 20.2509L302.017 23.8599L284.312 25.0042L285.461 42.7768L300.85 41.7821L301.079 45.323L285.69 46.3177L286.874 64.635L304.578 63.4907L304.812 67.0997L283.021 68.5081ZM333.659 65.2352L326.281 46.2925L324.987 46.3761L315.181 47.0099L316.431 66.3487L312.414 66.6084L309.386 19.7595L323.549 18.8441C326.681 18.6416 329.058 19.0807 330.677 20.1612C332.297 21.2417 333.373 22.7221 333.905 24.6023C334.482 26.4796 334.867 28.9164 335.061 31.9125C335.287 35.408 335.107 38.2687 334.522 40.4947C333.978 42.6723 332.532 44.2702 330.182 45.2882L337.949 64.9579L333.659 65.2352ZM324.145 42.8749C326.415 42.7281 328.047 42.2352 329.041 41.396C330.081 40.5538 330.715 39.4415 330.945 38.0591C331.172 36.6313 331.205 34.669 331.043 32.1722C330.879 29.63 330.594 27.6882 330.188 26.3469C329.828 25.0026 329.102 24.001 328.011 23.3422C326.917 22.6379 325.235 22.3592 322.965 22.5059L313.636 23.1089L314.952 43.469L324.145 42.8749ZM381.023 62.1738L379.615 40.3836L361.638 41.5456L363.046 63.3357L359.097 63.591L356.069 16.7422L360.018 16.4869L361.396 37.8004L379.373 36.6384L377.995 15.325L381.945 15.0697L384.973 61.9185L381.023 62.1738ZM418.085 59.7783L413.515 46.1928L398.33 47.1743L395.614 61.2307L391.528 61.4948L401.37 13.8141L406.341 13.4928L422.239 59.5098L418.085 59.7783ZM404.31 19.0944L403.969 19.1164L399.122 43.5674L412.264 42.7179L404.31 19.0944ZM428.719 59.0909L425.691 12.2421L446.46 10.8997L446.693 14.5087L430.01 15.5871L431.225 34.381L446.137 33.4172L446.366 36.9581L431.453 37.9219L432.805 58.8269L428.719 59.0909ZM463.529 56.841L460.739 13.6693L449.98 14.3647L449.742 10.6876L475.277 9.03712L475.515 12.7142L464.756 13.4096L467.547 56.5813L463.529 56.841ZM503.535 54.2552L498.965 40.6697L483.78 41.6512L481.064 55.7076L476.979 55.9717L486.82 8.29103L491.791 7.96974L507.689 53.9867L503.535 54.2552ZM489.76 13.5713L489.42 13.5933L484.572 38.0443L497.715 37.1948L489.76 13.5713Z" fill="white"/>
<g filter="url(#filter0_d_1_464)">
<path fill-rule="evenodd" clip-rule="evenodd" d="M139.078 53.1373L137.347 60.3997L139.521 93.2609L147.689 92.7327L147.973 97.1146L152.355 96.8312L156.455 92.1659L164.124 91.6699L177.447 76.5076L175.782 50.7638L139.078 53.1373ZM173.47 74.5646L167.834 80.9794L157.973 81.6171L152.849 87.4488L152.495 81.9714L144.277 82.5028L142.613 56.759L172.195 54.8459L173.47 74.5646ZM162.795 62.6042L166.63 62.3563L167.338 73.3111L163.503 73.5591L162.795 62.6042ZM152.934 63.2419L156.769 62.9939L157.477 73.9487L153.642 74.1967L152.934 63.2419ZM202.793 111.171L204.458 136.914L190.852 147.695L182.087 148.262L181.804 143.88L175.513 148.687L167.843 149.183L167.56 144.801L162.913 149.501L148.67 150.423L144.004 146.324L143.191 150.777L130.616 151.557L125.377 147.529L125.113 151.946L110.862 152.834L110.038 148.52L106.485 153.118L84.5737 154.567L80.0494 152.66L80.1911 154.851L68.1389 155.63L54.4597 148.264L45.711 140.58L43.3733 104.429L60.3559 103.331L69.1046 111.015L106.357 108.606L105.826 100.39L136.504 98.4063L137.035 106.622L144.705 106.126L144.988 110.508L149.087 105.843L158.4 105.241L166.087 96.4933L183.617 95.3596L184.148 103.576L193.461 102.973L202.793 111.171ZM65.5178 115.097L57.8482 115.593L57.3169 107.377L47.456 108.015L49.4396 138.688L55.8907 144.872L67.3951 144.128L66.7221 133.721L59.0525 134.217L58.4858 125.453L66.1553 124.957L65.5178 115.097ZM106.605 112.44L96.7439 113.078L97.9482 131.701L94.1134 131.949L92.9091 113.326L83.5961 113.928L84.8004 132.552L80.9656 132.8L79.7613 114.176L69.3526 114.849L71.2299 143.88L101.908 141.896L108.057 134.898L106.605 112.44ZM119.753 111.59L110.44 112.192L112.317 141.223L121.63 140.62L119.753 111.59ZM119.221 103.374L109.908 103.976L110.192 108.358L119.505 107.756L119.221 103.374ZM141.118 110.209L133.448 110.705L132.917 102.488L123.056 103.126L125.04 133.8L131.491 139.983L142.995 139.239L142.322 128.832L134.653 129.328L134.086 120.564L141.756 120.068L141.118 110.209ZM166.318 108.579L150.979 109.571L145.342 115.986L146.405 132.418L153.404 138.566L168.195 137.609L167.522 127.202L156.566 127.911L155.999 119.147L166.956 118.438L166.318 108.579ZM199.029 112.514L192.066 106.914L180.561 107.658L180.03 99.4418L169.621 100.115L172.03 137.361L182.439 136.688L181.199 117.517L188.869 117.021L190.108 136.192L200.517 135.519L199.029 112.514Z" fill="#874BF7"/>
</g>
<path d="M217.881 22.3511L228.55 167.04" stroke="#3B3B3B"/>
<path d="M251.616 159.049L250.906 148.063L256.446 147.705C257.149 147.66 257.735 147.724 258.206 147.896C258.688 148.068 259.053 148.355 259.304 148.755C259.564 149.145 259.714 149.648 259.754 150.265C259.787 150.776 259.746 151.212 259.63 151.572C259.514 151.932 259.32 152.228 259.046 152.46C258.783 152.68 258.436 152.852 258.005 152.976L258.009 153.04C258.484 153.105 258.872 153.23 259.172 153.413C259.483 153.596 259.72 153.864 259.881 154.217C260.042 154.56 260.141 155.008 260.177 155.561C260.206 156.019 260.174 156.432 260.08 156.802C259.997 157.171 259.836 157.491 259.597 157.763C259.368 158.024 259.051 158.237 258.645 158.402C258.248 158.556 257.752 158.652 257.156 158.69L251.616 159.049ZM254.244 156.794L256.048 156.678C256.431 156.653 256.722 156.602 256.92 156.525C257.117 156.438 257.248 156.301 257.31 156.115C257.373 155.929 257.394 155.672 257.373 155.342C257.351 155.001 257.296 154.743 257.21 154.566C257.124 154.39 256.972 154.277 256.755 154.227C256.548 154.166 256.259 154.147 255.886 154.171L254.082 154.288L254.244 156.794ZM253.957 152.356L255.713 152.242C256.075 152.219 256.355 152.169 256.553 152.092C256.751 152.004 256.881 151.873 256.945 151.698C257.019 151.522 257.046 151.279 257.026 150.971C257.005 150.641 256.951 150.393 256.866 150.228C256.791 150.061 256.65 149.953 256.444 149.902C256.248 149.851 255.953 149.838 255.559 149.863L253.803 149.977L253.957 152.356ZM261.742 148.55L261.609 146.49L264.244 146.32L264.377 148.379L261.742 148.55ZM262.408 158.351L261.882 150.208L264.468 150.041L264.995 158.184L262.408 158.351ZM266.913 158.06L266.795 156.24L270.264 151.622L266.704 151.852L266.578 149.904L273.38 149.465L273.497 151.285L270.044 155.901L273.812 155.658L273.938 157.606L266.913 158.06ZM275.194 147.68L275.061 145.62L277.696 145.45L277.829 147.51L275.194 147.68ZM275.86 157.482L275.334 149.339L277.92 149.171L278.446 157.314L275.86 157.482ZM287.245 156.746L286.68 147.996L283.678 148.19L283.533 145.955L292.331 145.386L292.475 147.621L289.458 147.816L290.023 156.566L287.245 156.746ZM296.545 156.273C296.034 156.306 295.597 156.254 295.236 156.117C294.874 155.98 294.591 155.736 294.387 155.386C294.193 155.035 294.077 154.567 294.04 153.982C294 153.364 294.037 152.87 294.152 152.499C294.277 152.117 294.521 151.834 294.883 151.65C295.245 151.467 295.767 151.353 296.448 151.309C296.544 151.303 296.677 151.299 296.848 151.299C297.029 151.287 297.232 151.279 297.456 151.276C297.68 151.261 297.904 151.252 298.128 151.248C298.351 151.234 298.554 151.226 298.736 151.225L298.716 150.922C298.696 150.613 298.654 150.375 298.59 150.208C298.536 150.041 298.438 149.924 298.295 149.859C298.161 149.782 297.961 149.747 297.694 149.753C297.427 149.749 297.075 149.761 296.639 149.789C296.394 149.805 296.123 149.828 295.825 149.858C295.539 149.887 295.252 149.922 294.966 149.962C294.69 149.99 294.457 150.021 294.267 150.055L294.15 148.251C294.582 148.148 295.068 148.058 295.608 147.98C296.158 147.891 296.736 147.827 297.343 147.788C298.024 147.744 298.591 147.75 299.044 147.806C299.507 147.862 299.883 147.971 300.171 148.134C300.459 148.286 300.675 148.492 300.82 148.749C300.976 149.007 301.087 149.315 301.153 149.674C301.219 150.033 301.266 150.442 301.296 150.899L301.614 155.817L299.155 155.976L299.029 155.022L298.901 155.03C298.72 155.363 298.501 155.617 298.245 155.794C297.989 155.971 297.714 156.09 297.419 156.152C297.123 156.214 296.832 156.254 296.545 156.273ZM297.64 154.374C297.832 154.362 297.996 154.341 298.133 154.31C298.28 154.269 298.4 154.213 298.491 154.143C298.593 154.061 298.672 153.965 298.729 153.855C298.775 153.734 298.808 153.588 298.829 153.416C298.85 153.243 298.853 153.04 298.838 152.806L298.818 152.502L297.333 152.598C297.067 152.616 296.866 152.65 296.731 152.701C296.594 152.742 296.504 152.834 296.46 152.975C296.425 153.106 296.417 153.31 296.435 153.586C296.45 153.821 296.489 154 296.55 154.124C296.612 154.248 296.723 154.327 296.886 154.359C297.059 154.39 297.31 154.396 297.64 154.374ZM303.84 155.673L303.073 143.81L305.628 143.645L306.069 150.478L306.564 150.446L308.486 147.196L311.217 147.019L308.706 151.094L311.791 155.159L308.949 155.343L306.69 152.394L306.195 152.426L306.394 155.508L303.84 155.673ZM312.566 145.265L312.433 143.205L315.068 143.035L315.201 145.094L312.566 145.265ZM313.232 155.066L312.706 146.923L315.292 146.756L315.818 154.899L313.232 155.066ZM318.245 157.933L317.514 146.612L319.941 146.455L320.068 147.441L320.212 147.432C320.363 147.112 320.55 146.865 320.773 146.69C321.008 146.515 321.273 146.391 321.567 146.318C321.861 146.235 322.157 146.184 322.455 146.165C322.934 146.134 323.343 146.171 323.681 146.278C324.03 146.383 324.321 146.589 324.555 146.895C324.798 147.189 324.985 147.604 325.116 148.141C325.258 148.677 325.355 149.355 325.408 150.174C325.46 150.983 325.451 151.663 325.379 152.213C325.319 152.762 325.192 153.203 325 153.536C324.808 153.869 324.546 154.116 324.214 154.276C323.893 154.436 323.493 154.531 323.014 154.562C322.705 154.582 322.405 154.575 322.115 154.54C321.824 154.505 321.557 154.426 321.314 154.303C321.08 154.169 320.87 153.974 320.683 153.719L320.539 153.728L320.8 157.767L318.245 157.933ZM321.712 152.53C321.999 152.511 322.227 152.475 322.395 152.422C322.562 152.368 322.679 152.275 322.745 152.142C322.821 151.998 322.861 151.787 322.865 151.509C322.879 151.23 322.87 150.846 322.838 150.357C322.807 149.867 322.766 149.485 322.716 149.21C322.676 148.924 322.61 148.72 322.516 148.598C322.433 148.464 322.305 148.387 322.132 148.366C321.959 148.334 321.729 148.328 321.442 148.346C321.133 148.366 320.896 148.424 320.731 148.521C320.577 148.605 320.463 148.746 320.39 148.944C320.337 149.118 320.309 149.339 320.305 149.606C320.3 149.863 320.309 150.167 320.331 150.519C320.355 150.881 320.385 151.189 320.423 151.443C320.461 151.697 320.511 151.897 320.574 152.042C320.673 152.25 320.811 152.39 320.986 152.464C321.161 152.528 321.403 152.55 321.712 152.53ZM332.041 153.85L331.331 142.865L339.027 142.368L339.165 144.507L334.247 144.825L334.393 147.076L338.56 146.807L338.697 148.915L334.529 149.184L334.681 151.531L339.599 151.213L339.737 153.353L332.041 153.85ZM344.223 153.191C343.755 153.221 343.346 153.184 342.997 153.078C342.648 152.972 342.357 152.772 342.125 152.477C341.891 152.171 341.704 151.751 341.562 151.215C341.431 150.678 341.339 150 341.286 149.18C341.234 148.371 341.238 147.692 341.299 147.143C341.359 146.583 341.485 146.142 341.678 145.82C341.871 145.487 342.127 145.24 342.448 145.081C342.78 144.92 343.185 144.825 343.664 144.794C343.984 144.773 344.283 144.78 344.563 144.816C344.854 144.85 345.121 144.929 345.364 145.053C345.608 145.176 345.823 145.37 346.011 145.636L346.139 145.628L345.843 141.045L348.414 140.879L349.18 152.742L346.737 152.9L346.611 151.931L346.483 151.939C346.343 152.258 346.151 152.505 345.906 152.682C345.67 152.846 345.406 152.965 345.111 153.038C344.828 153.12 344.532 153.171 344.223 153.191ZM345.236 151.009C345.566 150.988 345.809 150.935 345.964 150.85C346.128 150.754 346.241 150.597 346.302 150.379C346.353 150.183 346.377 149.963 346.371 149.717C346.376 149.461 346.368 149.167 346.347 148.837C346.325 148.507 346.296 148.22 346.259 147.977C346.232 147.733 346.182 147.528 346.107 147.362C346.028 147.131 345.9 146.979 345.725 146.905C345.549 146.831 345.296 146.805 344.966 146.826C344.679 146.845 344.451 146.881 344.284 146.934C344.116 146.988 343.994 147.087 343.918 147.23C343.852 147.363 343.817 147.568 343.813 147.846C343.81 148.125 343.824 148.508 343.856 148.998C343.887 149.488 343.923 149.876 343.963 150.162C344.002 150.437 344.064 150.641 344.147 150.775C344.24 150.897 344.374 150.974 344.547 151.006C344.719 151.027 344.949 151.028 345.236 151.009ZM350.734 142.798L350.6 140.738L353.235 140.568L353.368 142.627L350.734 142.798ZM351.399 152.599L350.873 144.456L353.459 144.289L353.986 152.432L351.399 152.599ZM356.207 152.288L355.681 144.145L358.108 143.988L358.236 144.974L358.379 144.965C358.521 144.678 358.704 144.447 358.928 144.272C359.151 144.087 359.41 143.952 359.703 143.869C359.997 143.775 360.319 143.717 360.67 143.695C361.213 143.659 361.649 143.701 361.977 143.819C362.316 143.936 362.579 144.122 362.767 144.377C362.954 144.632 363.087 144.955 363.166 145.345C363.255 145.735 363.317 146.19 363.35 146.712L363.68 151.805L361.109 151.971L360.83 147.66C360.802 147.224 360.769 146.884 360.732 146.641C360.695 146.387 360.635 146.203 360.553 146.091C360.47 145.979 360.349 145.917 360.188 145.906C360.037 145.884 359.833 145.881 359.578 145.898C359.312 145.915 359.096 145.961 358.93 146.036C358.773 146.099 358.657 146.203 358.581 146.347C358.515 146.49 358.475 146.69 358.459 146.948C358.454 147.194 358.463 147.503 358.487 147.876L358.762 152.123L356.207 152.288ZM366.454 147.89C366.366 147.361 366.278 146.822 366.189 146.272C366.099 145.711 366.011 145.172 365.924 144.654C365.848 144.135 365.78 143.658 365.719 143.224C365.659 142.779 365.607 142.397 365.565 142.079C365.533 141.75 365.513 141.511 365.503 141.362L365.458 140.659L368.411 140.469L368.457 141.171C368.466 141.32 368.471 141.56 368.471 141.892C368.481 142.212 368.485 142.596 368.482 143.045C368.478 143.484 368.466 143.966 368.447 144.491C368.438 145.015 368.425 145.561 368.408 146.128C368.391 146.685 368.373 147.232 368.354 147.767L366.454 147.89ZM366.279 151.637L366.13 149.322L368.86 149.146L369.01 151.461L366.279 151.637Z" fill="white"/>
<defs>
<filter id="filter0_d_1_464" x="0.37326" y="11.7638" width="247.085" height="190.866" filterUnits="userSpaceOnUse" color-interpolation-filters="sRGB">
<feFlood flood-opacity="0" result="BackgroundImageFix"/>
<feColorMatrix in="SourceAlpha" type="matrix" values="0 0 0 0 0 0 0 0 0 0 0 0 0 0 0 0 0 0 127 0" result="hardAlpha"/>
<feOffset dy="4"/>
<feGaussianBlur stdDeviation="21.5"/>
<feComposite in2="hardAlpha" operator="out"/>
<feColorMatrix type="matrix" values="0 0 0 0 0.529412 0 0 0 0 0.294118 0 0 0 0 0.968627 0 0 0 0.4 0"/>
<feBlend mode="normal" in2="BackgroundImageFix" result="effect1_dropShadow_1_464"/>
<feBlend mode="normal" in="SourceGraphic" in2="effect1_dropShadow_1_464" result="shape"/>
</filter>
</defs>
</svg>
