<svg width="35" height="26" viewBox="0 0 35 26" fill="none" xmlns="http://www.w3.org/2000/svg">
<path d="M23.4114 0.871826C23.5529 1.07487 23.7682 0.967197 23.9436 0.97335C25.971 1.06564 28.0015 1.1364 30.0196 1.38867C32.7454 1.72709 34.1267 3.03151 34.5328 5.74804C35.065 9.29214 35.0835 12.8547 34.8958 16.4234C34.822 17.8355 34.7051 19.2384 34.4436 20.632C34.019 22.8994 32.6039 24.2376 30.3088 24.5084C26.5309 24.9575 22.7315 24.9914 18.9382 25.0345C15.0526 25.0775 11.167 24.9729 7.28757 24.7176C6.40769 24.6591 5.52782 24.5668 4.66026 24.4069C2.7713 24.0592 1.46072 22.8009 1.05155 20.9212C0.725446 19.4322 0.639305 17.9155 0.519322 16.4019C0.507017 16.2419 0.60854 16.045 0.408569 15.925V9.99049C0.60854 9.87051 0.507017 9.67362 0.519322 9.51364C0.626999 8.17845 0.719293 6.84019 0.943876 5.5173C1.36228 3.04074 2.76822 1.70863 5.25709 1.38867C7.23834 1.1364 9.22882 1.07487 11.2193 0.976426C11.3947 0.967197 11.61 1.07795 11.7485 0.871826H23.4114V0.871826ZM14.3081 7.80927V18.1062C17.3107 16.3803 20.2549 14.6883 23.2668 12.9562C20.2395 11.2149 17.3015 9.52902 14.3081 7.80927Z" fill="#F0E74D"/>
</svg>
