<svg width="33" height="26" viewBox="0 0 33 26" fill="none" xmlns="http://www.w3.org/2000/svg">
<path d="M27.8483 2.73285C25.7283 1.76285 23.4983 1.06285 21.1983 0.672852C20.9083 1.18285 20.5783 1.86285 20.3483 2.42285C17.9083 2.06285 15.4183 2.06285 12.9783 2.42285C12.7183 1.82285 12.4283 1.24285 12.1083 0.672852C9.80829 1.06285 7.56829 1.75285 5.44829 2.73285C1.24829 8.99285 0.108301 15.1028 0.678301 21.1129C3.1383 22.9429 5.8983 24.3329 8.8383 25.2329C9.4983 24.3329 10.0783 23.3929 10.5883 22.3929C9.6383 22.0329 8.7183 21.5929 7.8383 21.0829C8.0683 20.9129 8.28831 20.7329 8.49831 20.5629C13.6683 23.0029 19.6583 23.0029 24.8183 20.5629C25.0383 20.7429 25.2683 20.9229 25.4883 21.0929C24.6083 21.6129 23.6883 22.0529 22.7283 22.4129C23.2283 23.4029 23.8183 24.3529 24.4783 25.2429C27.4183 24.3529 30.1783 22.9629 32.6383 21.1229C33.2983 14.1529 31.4883 8.09285 27.8383 2.73285M11.2883 17.4329C9.69832 17.4329 8.38829 15.9729 8.38829 14.1829C8.38829 12.3929 9.66832 10.9229 11.2883 10.9229C12.9083 10.9229 14.1983 12.3829 14.1883 14.1729C14.1683 15.9629 12.9083 17.4329 11.2883 17.4329ZM21.9983 17.4329C20.4083 17.4329 19.0983 15.9729 19.0983 14.1829C19.0983 12.3929 20.3783 10.9229 21.9983 10.9229C23.6183 10.9229 24.9083 12.3829 24.8983 14.1729C24.8783 15.9629 23.6183 17.4329 21.9983 17.4329Z" fill="#F0E74D"/>
</svg>
