<svg width="28" height="24" viewBox="0 0 28 24" fill="none" xmlns="http://www.w3.org/2000/svg">
<path d="M27.4315 3.46606C26.5715 3.85606 25.6115 4.09606 24.6915 4.24606C25.1315 4.17606 25.7815 3.37606 26.0415 3.04606C26.4415 2.55606 26.7615 1.98606 26.9515 1.38606C26.9715 1.33606 26.9915 1.27606 26.9515 1.24606C26.8915 1.22606 26.8515 1.23606 26.8015 1.25606C25.7615 1.81606 24.6915 2.21606 23.5415 2.50606C23.4515 2.52606 23.3815 2.50606 23.3215 2.44606C23.2215 2.33606 23.1415 2.23606 23.0315 2.15606C22.5515 1.74606 22.0415 1.42606 21.4515 1.18606C20.6915 0.876061 19.8515 0.746061 19.0315 0.796061C18.2315 0.846061 17.4415 1.07606 16.7415 1.44606C16.0315 1.81606 15.3915 2.33606 14.8915 2.95606C14.3715 3.60606 13.9815 4.36606 13.7915 5.16606C13.6015 5.94606 13.6115 6.71606 13.7315 7.50606C13.7515 7.63606 13.7315 7.65606 13.6215 7.63606C9.15153 6.96606 5.44153 5.37606 2.44153 1.94606C2.31153 1.79606 2.24153 1.79606 2.13153 1.95606C0.811534 3.92606 1.45153 7.09606 3.10153 8.65606C3.32153 8.86606 3.55153 9.07606 3.79153 9.26606C3.70153 9.28606 2.61153 9.16606 1.63153 8.65606C1.50153 8.57606 1.43154 8.61606 1.42154 8.76606C1.41154 8.97606 1.42153 9.17606 1.46153 9.40606C1.71153 11.4061 3.10153 13.2561 4.99153 13.9761C5.22153 14.0761 5.46153 14.1561 5.71153 14.1961C5.28153 14.2861 4.83153 14.3561 3.59153 14.2661C3.44153 14.2361 3.38153 14.3161 3.44153 14.4661C4.37153 17.0061 6.38153 17.7561 7.89153 18.1861C8.09153 18.2261 8.29153 18.2261 8.49153 18.2661C8.48153 18.2861 8.47153 18.2861 8.46153 18.3061C7.96153 19.0661 6.23153 19.6361 5.42154 19.9161C3.95153 20.4261 2.36153 20.6561 0.811534 20.5061C0.561534 20.4661 0.511532 20.4761 0.441532 20.5061C0.371532 20.5461 0.441531 20.6061 0.511531 20.6761C0.831531 20.8861 1.14153 21.0661 1.47153 21.2461C2.46153 21.7661 3.48153 22.1861 4.55153 22.4761C10.0915 24.0061 16.3315 22.8861 20.4915 18.7461C23.7615 15.4961 24.9015 11.0261 24.9015 6.53606C24.9015 6.35606 25.1115 6.26606 25.2315 6.16606C26.0815 5.52606 26.7715 4.76606 27.4015 3.90606C27.5415 3.71606 27.5415 3.54606 27.5415 3.47606V3.45606C27.5415 3.38606 27.5415 3.40606 27.4315 3.45606" fill="#F0E74D"/>
</svg>
