<svg width="36" height="36" viewBox="0 0 36 36" fill="none" xmlns="http://www.w3.org/2000/svg">
<path d="M18.0903 0.639648C8.52539 0.639648 0.772095 8.39294 0.772095 17.9579C0.772095 27.5228 8.52539 35.2761 18.0903 35.2761C27.6553 35.2761 35.4086 27.5228 35.4086 17.9579C35.4086 8.39294 27.6573 0.639648 18.0903 0.639648ZM26.0318 25.6181C25.7216 26.1269 25.0557 26.2882 24.5469 25.9759C20.4811 23.4921 15.3625 22.9296 9.33401 24.3069C8.75288 24.4393 8.17381 24.0753 8.04145 23.4942C7.90909 22.913 8.27101 22.334 8.85421 22.2016C15.4514 20.694 21.1098 21.3434 25.6761 24.1332C26.1849 24.4455 26.3462 25.1094 26.0339 25.6181H26.0318ZM28.1516 20.9029C27.7607 21.5378 26.9294 21.7384 26.2945 21.3475C21.6392 18.4852 14.5435 17.658 9.03621 19.329C8.32271 19.5441 7.56786 19.1429 7.35071 18.4294C7.13563 17.7159 7.53891 16.9631 8.25033 16.746C14.5394 14.8371 22.3589 15.7616 27.7049 19.0478C28.3398 19.4386 28.5404 20.27 28.1496 20.9049L28.1516 20.9029ZM28.3336 15.9911C22.7518 12.676 13.5426 12.372 8.2131 13.9892C7.35691 14.2477 6.45315 13.7659 6.19257 12.9097C5.93406 12.0535 6.41593 11.1497 7.27212 10.8891C13.3895 9.03198 23.5604 9.38976 29.986 13.2054C30.7574 13.6624 31.0097 14.6572 30.5527 15.4245C30.0977 16.1938 29.1009 16.4482 28.3336 15.9911Z" fill="#F0E74D"/>
</svg>
